<svg width="32" height="41" viewBox="0 0 32 41" fill="none" xmlns="http://www.w3.org/2000/svg">
<g opacity="0.84">
<path fill-rule="evenodd" clip-rule="evenodd" d="M16.6249 3.43226C16.2125 3.34745 15.7871 3.34745 15.3747 3.43226C14.898 3.53031 14.472 3.76896 14.1332 3.95868L14.0409 4.01026L2.56051 10.3883C2.52877 10.4059 2.49606 10.4239 2.46255 10.4424C2.10397 10.6399 1.65311 10.8882 1.30688 11.2639C1.00753 11.5887 0.780994 11.9738 0.642415 12.3932C0.482129 12.8783 0.484004 13.393 0.485496 13.8024C0.485635 13.8407 0.485771 13.878 0.485771 13.9143V26.5072C0.485771 26.5435 0.485635 26.5809 0.485496 26.6191C0.484004 27.0285 0.482129 27.5432 0.642416 28.0283C0.780995 28.4478 1.00753 28.8328 1.30688 29.1576C1.65311 29.5333 2.10398 29.7817 2.46255 29.9792C2.49606 29.9976 2.52877 30.0156 2.56051 30.0333L14.0409 36.4113L14.1332 36.4628C14.472 36.6526 14.898 36.8912 15.3748 36.9892C15.7871 37.0741 16.2125 37.0741 16.6249 36.9892C17.1016 36.8912 17.5277 36.6526 17.8664 36.4628L17.9587 36.4113L29.4391 30.0333C29.4531 30.0255 29.4674 30.0176 29.4818 30.0096C29.4999 29.9996 29.5184 29.9895 29.5371 29.9792C29.8956 29.7817 30.3465 29.5333 30.6927 29.1576C30.9921 28.8328 31.2186 28.4478 31.3572 28.0283C31.5175 27.5432 31.5156 27.0285 31.5141 26.6191C31.514 26.5809 31.5139 26.5435 31.5139 26.5072V13.9143C31.5139 13.878 31.514 13.8407 31.5141 13.8024C31.5156 13.393 31.5175 12.8783 31.3572 12.3932C31.2186 11.9738 30.9921 11.5887 30.6927 11.2639C30.3465 10.8882 29.8956 10.6399 29.5371 10.4424L29.5358 10.4417C29.5027 10.4234 29.4705 10.4057 29.4391 10.3883L17.9587 4.01026L17.8664 3.95868C17.5277 3.76895 17.1016 3.53031 16.6249 3.43226ZM15.5478 6.7226C15.7829 6.59199 15.9029 6.526 15.9924 6.48282L15.9998 6.47926L16.0072 6.48282C16.0968 6.526 16.2168 6.59199 16.4519 6.7226L26.7678 12.4537L15.9998 18.436L5.23173 12.4537L15.5478 6.7226ZM3.58858 15.0904L14.4484 21.1236L14.4484 33.0882L4.06737 27.3209C3.81921 27.1831 3.69252 27.1119 3.60363 27.0553L3.59612 27.0505L3.59556 27.0416C3.58922 26.9364 3.58858 26.7911 3.58858 26.5072V15.0904Z" fill="white"/>
</g>
</svg>
