<svg width="193" height="48" viewBox="0 0 193 48" fill="none" xmlns="http://www.w3.org/2000/svg">
<g opacity="0.84">
<path d="M27.6627 4H12.3374L0 16.3373V31.6626L12.3374 44H27.6627L40 31.6626V16.3373L27.6627 4ZM14.4578 31.8554L6.55423 23.9518L14.4578 16.0482C17.4458 13.0602 22.3615 13.0602 25.3494 16.0482L33.253 23.9518L25.3494 31.8554C22.3615 34.8434 17.5422 34.8434 14.4578 31.8554Z" fill="white"/>
</g>
<g opacity="0.84">
<path fill-rule="evenodd" clip-rule="evenodd" d="M98.3415 31.4052C99.1535 32.5362 100.662 33.2322 102.344 33.2322C106.665 33.2322 109.246 30.2452 109.246 25.6922C109.246 21.1392 106.665 18.1522 102.402 18.1522C100.575 18.1522 99.1535 18.8482 98.3415 19.9212V12.0332H94.3105V33.0002H98.3415V31.4052ZM105.273 25.6922C105.273 28.1282 103.823 29.7522 101.706 29.7522C99.5305 29.7522 98.1096 28.1282 98.1096 25.6922C98.1096 23.2272 99.5305 21.6032 101.706 21.6032C103.823 21.6032 105.273 23.2272 105.273 25.6922Z" fill="white"/>
<path fill-rule="evenodd" clip-rule="evenodd" d="M116.283 18.1522C119.966 18.1522 122.663 20.2982 122.663 23.6042V33.0002H118.661V30.9702C118.168 32.3332 116.544 33.2322 114.543 33.2322C111.701 33.2322 109.758 31.3472 109.758 28.8532C109.758 25.9822 111.904 24.2422 115.094 24.2422H117.559C118.284 24.2422 118.661 23.7782 118.661 23.1692C118.661 21.9512 117.704 21.1102 116.051 21.1102C114.282 21.1102 113.383 22.2122 113.325 23.4302H109.729C109.903 20.5012 112.281 18.1522 116.283 18.1522ZM115.558 30.3032C117.53 30.3032 118.661 28.8532 118.661 26.9972V26.7942H115.703C114.485 26.7942 113.615 27.5482 113.615 28.6792C113.615 29.6362 114.427 30.3032 115.558 30.3032Z" fill="white"/>
<path d="M124.502 12.0332V33.0002H128.533V12.0332H124.502Z" fill="white"/>
<path fill-rule="evenodd" clip-rule="evenodd" d="M130.965 12.7002H139.027C142.71 12.7002 145.465 14.5272 145.465 17.9202C145.465 19.8342 144.276 21.2842 143.087 21.9222C144.943 22.6472 146.509 24.2712 146.509 26.9392C146.509 30.7962 143.551 33.0002 139.259 33.0002H130.965V12.7002ZM135.257 20.4432H138.708C140.564 20.4432 141.434 19.6602 141.434 18.2972C141.434 16.9342 140.564 16.1512 138.621 16.1512H135.257V20.4432ZM135.257 29.2302H138.882C141.289 29.2302 142.362 28.3602 142.362 26.7072C142.362 25.0542 141.289 24.1262 138.882 24.1262H135.257V29.2302Z" fill="white"/>
<path fill-rule="evenodd" clip-rule="evenodd" d="M160.191 23.6042C160.191 20.2982 157.494 18.1522 153.811 18.1522C149.809 18.1522 147.431 20.5012 147.257 23.4302H150.853C150.911 22.2122 151.81 21.1102 153.579 21.1102C155.232 21.1102 156.189 21.9512 156.189 23.1692C156.189 23.7782 155.812 24.2422 155.087 24.2422H152.622C149.432 24.2422 147.286 25.9822 147.286 28.8532C147.286 31.3472 149.229 33.2322 152.071 33.2322C154.072 33.2322 155.696 32.3332 156.189 30.9702V33.0002H160.191V23.6042ZM156.189 26.9972C156.189 28.8532 155.058 30.3032 153.086 30.3032C151.955 30.3032 151.143 29.6362 151.143 28.6792C151.143 27.5482 152.013 26.7942 153.231 26.7942H156.189V26.9972Z" fill="white"/>
<path d="M161.798 33.0002V18.6302H165.858V20.4142C166.67 18.9932 168.294 18.1522 170.295 18.1522C173.601 18.1522 175.747 20.5302 175.747 23.8942V33.0002H171.687V24.7932C171.687 23.0242 170.556 21.7482 168.874 21.7482C167.105 21.7482 165.858 23.1112 165.858 24.9962V33.0002H161.798Z" fill="white"/>
<path d="M183.461 26.8232L187.608 33.0002H192.48L186.187 24.1262L191.767 18.6302H186.662L181.837 23.3722V12.0332H177.777V33.0002H181.837V28.4182L183.461 26.8232Z" fill="white"/>
<path fill-rule="evenodd" clip-rule="evenodd" d="M92.3105 22.5654L87.6654 17.9203H81.8756L77.2305 22.5654V28.3552L81.8756 33.0003H87.6654L92.3105 28.3552V22.5654ZM80.1079 25.4426L82.8717 28.2064C83.9302 29.2307 85.5776 29.2272 86.5973 28.2075L89.3622 25.4426L86.5973 22.6777C85.5761 21.6564 83.8941 21.6564 82.8728 22.6777L80.1079 25.4426Z" fill="white"/>
<path d="M71.2017 12.0332V33.0002H75.2327V12.0332H71.2017Z" fill="white"/>
<path d="M50 22.8502C50 29.7812 54.785 33.2322 59.976 33.2322C62.586 33.2322 64.732 31.8982 65.399 29.8972V33.0002H69.256V25.1702C69.256 24.3784 68.9771 23.6389 68.5 23.0635C67.9111 22.3534 67.0203 21.8932 65.979 21.8932H60.469V25.1702H64.384C64.877 25.1702 65.196 25.4892 65.196 25.9822C65.196 27.8672 62.702 29.6942 60.179 29.6942C56.815 29.6942 54.147 27.0552 54.147 22.8502C54.147 18.6452 56.815 16.2092 60.266 16.2092C62.876 16.2092 64.674 17.6302 64.993 19.8052H69.314C69.053 15.4552 65.399 12.4682 60.295 12.4682C54.93 12.4682 50 15.9192 50 22.8502Z" fill="white"/>
</g>
</svg>
