<svg width="163" height="48" viewBox="0 0 163 48" fill="none" xmlns="http://www.w3.org/2000/svg">
<g opacity="0.84">
<path fill-rule="evenodd" clip-rule="evenodd" d="M19.742 4.07554C19.2523 3.97482 18.7472 3.97482 18.2575 4.07554C17.6914 4.19197 17.1855 4.47536 16.7832 4.70066L16.6736 4.76191L3.0406 12.3358C3.00291 12.3567 2.96407 12.3781 2.92428 12.4C2.49847 12.6346 1.96307 12.9295 1.55191 13.3756C1.19644 13.7614 0.927429 14.2186 0.762866 14.7166C0.572526 15.2927 0.574753 15.9039 0.576524 16.3901C0.57669 16.4355 0.576851 16.4798 0.576851 16.523V31.477C0.576851 31.5202 0.57669 31.5645 0.576524 31.6099C0.574753 32.0961 0.572526 32.7073 0.762867 33.2834C0.92743 33.7815 1.19644 34.2386 1.55191 34.6244C1.96307 35.0705 2.49847 35.3654 2.92428 35.6C2.96407 35.6219 3.00291 35.6433 3.0406 35.6642L16.6736 43.2381L16.7832 43.2993C17.1855 43.5247 17.6914 43.808 18.2575 43.9245C18.7472 44.0252 19.2523 44.0252 19.742 43.9245C20.3081 43.808 20.8141 43.5246 21.2163 43.2993L21.326 43.2381L34.9589 35.6642C34.9756 35.655 34.9925 35.6456 35.0096 35.6362C35.0312 35.6243 35.0531 35.6122 35.0753 35.6C35.5011 35.3654 36.0365 35.0705 36.4476 34.6244C36.8031 34.2386 37.0721 33.7815 37.2367 33.2834C37.427 32.7073 37.4248 32.0961 37.423 31.6099C37.4229 31.5645 37.4227 31.5202 37.4227 31.477V16.523C37.4227 16.4798 37.4229 16.4355 37.423 16.3901C37.4248 15.9039 37.427 15.2927 37.2367 14.7166C37.0721 14.2186 36.8031 13.7614 36.4476 13.3756C36.0365 12.9295 35.5011 12.6346 35.0753 12.4L35.0738 12.3992C35.0345 12.3776 34.9962 12.3565 34.9589 12.3358L21.326 4.76191L21.2163 4.70066C20.8141 4.47536 20.3081 4.19196 19.742 4.07554ZM18.463 7.98282C18.7421 7.82772 18.8847 7.74935 18.991 7.69807L18.9998 7.69385L19.0086 7.69807C19.1149 7.74935 19.2574 7.82771 19.5366 7.98282L31.7868 14.7885L18.9997 21.8924L6.21268 14.7885L18.463 7.98282ZM4.26144 17.9195L17.1574 25.084L17.1575 39.2919L4.82999 32.4433C4.53531 32.2796 4.38486 32.1951 4.27931 32.1279L4.27039 32.1222L4.26973 32.1116C4.2622 31.9867 4.26144 31.8141 4.26144 31.477V17.9195Z" fill="white"/>
</g>
<g opacity="0.84">
<path d="M62.64 32.9999H48V29.5799H50.1V16.9199H48V13.4999H56.85V16.9199H54.12V29.5799H59.22L59.82 25.7999L63.24 26.0999L62.64 32.9999Z" fill="white"/>
<path d="M65.5685 17.0699V13.0499H69.4385V17.0699H65.5685ZM71.3885 32.9999H63.9185V30.0899H65.7185V22.4099H63.7685V19.4699H69.5885V30.0899H71.3885V32.9999Z" fill="white"/>
<path d="M87.9734 22.4099H86.1734V32.3099C86.1734 34.4699 85.5634 36.2299 84.3434 37.5899C83.1234 38.9699 81.2434 39.6599 78.7034 39.6599C77.3034 39.6599 75.9634 39.3699 74.6834 38.7899C73.4034 38.2299 72.4734 37.1699 71.8934 35.6099L74.8634 33.9299C75.8234 35.7099 77.1134 36.5999 78.7334 36.5999C79.7734 36.5999 80.6234 36.2199 81.2834 35.4599C81.9634 34.7199 82.3034 33.6699 82.3034 32.3099V30.5399C81.9434 31.2199 81.4134 31.7999 80.7134 32.2799C80.0134 32.7599 79.0634 32.9999 77.8634 32.9999C76.2834 32.9999 74.9034 32.4499 73.7234 31.3499C72.5434 30.2499 71.9534 28.6299 71.9534 26.4899C71.9534 24.4699 72.4934 22.7499 73.5734 21.3299C74.6534 19.9099 76.1434 19.1999 78.0434 19.1999C79.1034 19.1999 79.9834 19.4199 80.6834 19.8599C81.3834 20.2999 81.9234 20.8699 82.3034 21.5699V19.4699H87.9734V22.4099ZM82.3034 26.1599V25.8299C82.3034 24.7099 82.0134 23.8399 81.4334 23.2199C80.8734 22.5799 80.1534 22.2599 79.2734 22.2599C78.4134 22.2599 77.6934 22.5799 77.1134 23.2199C76.5534 23.8599 76.2734 24.8699 76.2734 26.2499C76.2734 27.5499 76.5234 28.4899 77.0234 29.0699C77.5434 29.6499 78.2134 29.9399 79.0334 29.9399C80.0934 29.9399 80.9034 29.5599 81.4634 28.7999C82.0234 28.0399 82.3034 27.1599 82.3034 26.1599Z" fill="white"/>
<path d="M104.814 32.9999H97.3441V30.0899H99.1441V25.3799C99.1441 24.2199 98.9341 23.3899 98.5141 22.8899C98.1141 22.3899 97.5341 22.1399 96.7741 22.1399C95.8941 22.1399 95.2041 22.4099 94.7041 22.9499C94.2241 23.4899 93.9641 24.1999 93.9241 25.0799V30.0899H95.7241V32.9999H88.2541V30.0899H90.0541V15.2999H88.2541V12.3599H93.9241V21.5399C94.8241 19.9799 96.2741 19.1999 98.2741 19.1999C99.5541 19.1999 100.664 19.5799 101.604 20.3399C102.544 21.0999 103.014 22.2799 103.014 23.8799V30.0899H104.814V32.9999Z" fill="white"/>
<path d="M116.786 28.7999C116.586 30.3599 116.046 31.4999 115.166 32.2199C114.286 32.9399 113.146 33.2999 111.746 33.2999C110.246 33.2999 109.026 32.9299 108.086 32.1899C107.166 31.4299 106.706 30.3499 106.706 28.9499V22.2299H104.786V19.4699H106.706V15.3599H110.576V19.4699H115.436V22.2299H110.576V28.2899C110.576 29.4699 111.116 30.0599 112.196 30.0599C112.436 30.0599 112.756 29.9599 113.156 29.7599C113.576 29.5399 113.846 28.9299 113.966 27.9299L116.786 28.7999Z" fill="white"/>
<path d="M131.859 25.9199C131.859 27.9199 131.329 29.6499 130.269 31.1099C129.229 32.5699 127.689 33.2999 125.649 33.2999C123.589 33.2999 122.139 32.5199 121.299 30.9599C121.259 31.2999 121.209 31.6399 121.149 31.9799C121.109 32.3199 121.059 32.6599 120.999 32.9999H117.129C117.269 32.2999 117.389 31.5999 117.489 30.8999C117.589 30.1999 117.639 29.5099 117.639 28.8299V15.2999H115.839V12.3599H121.509V22.0499C121.869 21.2699 122.409 20.5999 123.129 20.0399C123.869 19.4799 124.849 19.1999 126.069 19.1999C127.769 19.1999 129.159 19.7899 130.239 20.9699C131.319 22.1499 131.859 23.7999 131.859 25.9199ZM127.839 26.2499C127.839 24.9499 127.559 23.9599 126.999 23.2799C126.439 22.5999 125.699 22.2599 124.779 22.2599C123.739 22.2599 122.929 22.6399 122.349 23.3999C121.789 24.1599 121.509 25.0399 121.509 26.0399V26.3699C121.509 27.4699 121.779 28.3999 122.319 29.1599C122.879 29.8999 123.669 30.2699 124.689 30.2699C125.569 30.2699 126.309 29.9499 126.909 29.3099C127.529 28.6499 127.839 27.6299 127.839 26.2499Z" fill="white"/>
<path d="M146.972 26.2499C146.972 28.3899 146.272 30.0999 144.872 31.3799C143.472 32.6599 141.692 33.2999 139.532 33.2999C137.452 33.2999 135.752 32.6999 134.432 31.4999C133.132 30.2799 132.482 28.5799 132.482 26.3999C132.482 24.4199 133.082 22.7199 134.282 21.2999C135.482 19.8799 137.302 19.1699 139.742 19.1699C142.182 19.1699 143.992 19.8799 145.172 21.2999C146.372 22.6999 146.972 24.3499 146.972 26.2499ZM142.982 26.1299C142.982 24.7499 142.662 23.7399 142.022 23.0999C141.382 22.4599 140.602 22.1399 139.682 22.1399C138.682 22.1399 137.892 22.4999 137.312 23.2199C136.752 23.9199 136.472 24.9099 136.472 26.1899C136.472 27.3499 136.732 28.3299 137.252 29.1299C137.792 29.9299 138.592 30.3299 139.652 30.3299C140.652 30.3299 141.452 29.9599 142.052 29.2199C142.672 28.4599 142.982 27.4299 142.982 26.1299Z" fill="white"/>
<path d="M162.353 32.9999H155.543V30.0899H156.533L154.553 27.9599L152.603 30.0899H153.473V32.9999H147.143V30.0899H149.003L152.723 26.3399L148.643 22.3799H147.293V19.4699H154.133V22.3799H153.203L155.033 24.3899L156.983 22.3799H156.083V19.4699H161.963V22.3799H160.613L156.923 25.9199L161.033 30.0899H162.353V32.9999Z" fill="white"/>
</g>
</svg>
