<svg width="171" height="48" viewBox="0 0 171 48" fill="none" xmlns="http://www.w3.org/2000/svg">
<g opacity="0.84">
<path d="M12.3463 5.5224C14.7728 4.51737 17.3736 4 20 4V14C18.6867 14 17.3864 14.2586 16.1731 14.7613C14.9599 15.2638 13.8575 16.0003 12.9289 16.9289C12.0003 17.8575 11.2638 18.9599 10.7613 20.1731C10.2586 21.3864 10 22.6867 10 24H0C0 21.3736 0.517371 18.7728 1.5224 16.3463C2.52754 13.9198 4.00069 11.7151 5.85783 9.85783C7.71509 8.00069 9.91977 6.52754 12.3463 5.5224Z" fill="white"/>
<path d="M0 24C0 26.6264 0.517371 29.2272 1.5224 31.6537C2.52754 34.0802 4.00069 36.2849 5.85783 38.1422C7.71509 39.9993 9.91977 41.4725 12.3463 42.4776C14.7728 43.4826 17.3736 44 20 44C22.6264 44 25.2272 43.4826 27.6537 42.4776C30.0802 41.4725 32.2849 39.9993 34.1422 38.1422C35.9993 36.2849 37.4725 34.0802 38.4776 31.6537C39.4826 29.2272 40 26.6264 40 24H30C30 25.3133 29.7414 26.6136 29.2387 27.8269C28.7362 29.0401 27.9997 30.1425 27.0711 31.0711C26.1425 31.9997 25.0401 32.7362 23.8269 33.2387C22.6136 33.7414 21.3133 34 20 34C18.6867 34 17.3864 33.7414 16.1731 33.2387C14.9599 32.7362 13.8575 31.9997 12.9289 31.0711C12.0003 30.1425 11.2638 29.0401 10.7613 27.8269C10.2586 26.6136 10 25.3133 10 24H0Z" fill="white"/>
<path d="M20.0004 17.6367C16.4858 17.6367 13.6367 20.4858 13.6367 24.0004H26.364C26.364 20.4858 23.5149 17.6367 20.0004 17.6367Z" fill="white"/>
<path d="M20.0004 30.3633C16.4858 30.3633 13.6367 27.5142 13.6367 23.9996H26.364C26.364 27.5142 23.5149 30.3633 20.0004 30.3633Z" fill="white"/>
</g>
<g opacity="0.84">
<path d="M55.8857 32.5143C54.4817 31.9203 53.4017 31.0293 52.6457 29.8683C51.8897 28.7343 51.5117 27.3573 51.5117 25.7643H56.2367C56.2637 26.9523 56.6687 27.8973 57.4787 28.5453C58.2617 29.2203 59.3687 29.5443 60.7727 29.5443C62.1227 29.5443 63.2027 29.3013 63.9587 28.7883C64.7147 28.2753 65.0927 27.5733 65.0927 26.6823C65.0927 26.0613 64.8767 25.5753 64.4447 25.2243C64.0127 24.9003 63.4997 24.6573 62.8517 24.4953C62.2037 24.3603 61.3127 24.1983 60.1247 24.0363C58.4507 23.8203 57.0737 23.5773 56.0207 23.2533C54.9407 22.9563 54.0227 22.3893 53.2667 21.5253C52.5107 20.6613 52.1327 19.4463 52.1327 17.8263C52.1327 16.5033 52.4567 15.3423 53.1587 14.3433C53.8337 13.3443 54.8057 12.5883 56.0747 12.0483C57.3167 11.5083 58.8017 11.2383 60.5297 11.2383C62.2037 11.2383 63.7157 11.5353 65.0387 12.1023C66.3347 12.6963 67.3607 13.5063 68.1167 14.5593C68.8457 15.6123 69.2237 16.8543 69.2237 18.2583H64.5797C64.4717 17.2863 64.0667 16.5033 63.3647 15.9633C62.6627 15.4233 61.6907 15.1263 60.4487 15.1263C59.1527 15.1263 58.1807 15.3693 57.5057 15.8283C56.8037 16.2873 56.4797 16.9353 56.4797 17.7723C56.4797 18.4203 56.6957 18.9333 57.1277 19.2573C57.5597 19.6083 58.0997 19.8513 58.7477 19.9863C59.3957 20.1483 60.2867 20.2833 61.4747 20.4183C63.1487 20.6343 64.5257 20.9043 65.5787 21.2013C66.6317 21.4983 67.5497 22.0653 68.3057 22.9293C69.0617 23.7933 69.4667 25.0083 69.4667 26.6283C69.4667 27.9783 69.1157 29.1393 68.4137 30.1653C67.7117 31.1913 66.6857 32.0013 65.3627 32.5683C64.0397 33.1623 62.4737 33.4323 60.6647 33.4323C58.8557 33.4323 57.2627 33.1353 55.8857 32.5143Z" fill="white"/>
<path d="M74.417 32.4873C73.283 31.8393 72.419 30.9483 71.798 29.8143C71.177 28.6803 70.88 27.4113 70.88 25.9533C70.88 24.5223 71.177 23.2533 71.798 22.1193C72.419 20.9853 73.283 20.1213 74.417 19.4733C75.524 18.8523 76.793 18.5283 78.224 18.5283C79.466 18.5283 80.573 18.8523 81.572 19.4463C82.571 20.0403 83.354 20.9043 83.948 22.0113C84.515 23.1453 84.812 24.4143 84.812 25.8723V27.1683H74.957C75.038 28.1133 75.362 28.8423 75.902 29.3823C76.442 29.9223 77.225 30.1653 78.251 30.1653C78.926 30.1653 79.493 30.0033 79.925 29.6793C80.357 29.3553 80.627 28.9503 80.735 28.4373H84.731C84.515 29.9493 83.786 31.1643 82.598 32.0823C81.41 33.0003 79.952 33.4323 78.224 33.4323C76.793 33.4323 75.524 33.1353 74.417 32.4873ZM80.789 24.7113C80.735 23.9013 80.492 23.2533 80.006 22.7403C79.52 22.2543 78.872 21.9843 78.062 21.9843C77.144 21.9843 76.442 22.2273 75.929 22.7133C75.416 23.1993 75.092 23.8743 74.984 24.7113H80.789Z" fill="white"/>
<path d="M88.5758 37.6443C87.3878 36.8343 86.7398 35.6193 86.6048 33.9993H90.6278C90.6818 34.6203 91.0058 35.0793 91.5458 35.3763C92.0858 35.6733 92.7878 35.8083 93.6788 35.8083C94.7588 35.8083 95.5688 35.5113 96.1088 34.8903C96.6488 34.2963 96.8918 33.3513 96.8918 32.0553V31.0563C95.8928 32.4063 94.3268 33.0813 92.1938 33.0813C90.9788 33.0813 89.9258 32.8113 89.0078 32.2173C88.0898 31.6503 87.3878 30.8403 86.9018 29.7603C86.3888 28.6803 86.1458 27.4383 86.1458 26.0073C86.1458 24.5493 86.3888 23.2533 86.9018 22.1193C87.3878 20.9853 88.1168 20.1213 89.0348 19.4733C89.9528 18.8523 91.0058 18.5283 92.1938 18.5283C94.3268 18.5283 95.8928 19.2843 96.8918 20.7423V19.2002H100.915V32.0553C100.915 36.5913 98.4308 38.8323 93.4898 38.8323C91.3838 38.8323 89.7368 38.4543 88.5758 37.6443ZM95.9738 28.7073C96.5948 27.9783 96.9188 27.0333 96.9188 25.8453C96.9188 24.6843 96.5948 23.7123 95.9738 22.9563C95.3258 22.2003 94.5158 21.8223 93.5438 21.8223C92.5448 21.8223 91.7348 22.2003 91.0868 22.9563C90.4388 23.7123 90.1418 24.6843 90.1418 25.8453C90.1418 27.0063 90.4388 27.9513 91.0868 28.6803C91.7078 29.4363 92.5178 29.7873 93.5438 29.7873C94.5158 29.7873 95.3258 29.4363 95.9738 28.7073Z" fill="white"/>
<path d="M103.103 19.2002H107.099V20.9853C107.585 20.2293 108.206 19.6083 109.016 19.1763C109.826 18.7443 110.771 18.5283 111.851 18.5283C114.065 18.5283 115.577 19.4193 116.36 21.2013C117.629 19.4193 119.438 18.5283 121.814 18.5283C125.297 18.5283 127.052 20.7153 127.052 25.0623V33.0003H122.975V25.2783C122.975 24.2523 122.732 23.4693 122.246 22.8753C121.76 22.2813 121.085 21.9843 120.221 21.9843C119.249 21.9843 118.466 22.3353 117.899 23.0373C117.332 23.7393 117.062 24.6573 117.062 25.8183V33.0003H113.012V25.2783C113.012 24.2523 112.769 23.4693 112.283 22.8753C111.797 22.2813 111.122 21.9843 110.258 21.9843C109.286 21.9843 108.503 22.3353 107.936 23.0373C107.369 23.7393 107.099 24.6573 107.099 25.8183V33.0003H103.103V19.2002Z" fill="white"/>
<path d="M132.066 32.4873C130.932 31.8393 130.068 30.9483 129.447 29.8143C128.826 28.6803 128.529 27.4113 128.529 25.9533C128.529 24.5223 128.826 23.2533 129.447 22.1193C130.068 20.9853 130.932 20.1213 132.066 19.4733C133.173 18.8523 134.442 18.5283 135.873 18.5283C137.115 18.5283 138.222 18.8523 139.221 19.4463C140.22 20.0403 141.003 20.9043 141.597 22.0113C142.164 23.1453 142.461 24.4143 142.461 25.8723V27.1683H132.606C132.687 28.1133 133.011 28.8423 133.551 29.3823C134.091 29.9223 134.874 30.1653 135.9 30.1653C136.575 30.1653 137.142 30.0033 137.574 29.6793C138.006 29.3553 138.276 28.9503 138.384 28.4373H142.38C142.164 29.9493 141.435 31.1643 140.247 32.0823C139.059 33.0003 137.601 33.4323 135.873 33.4323C134.442 33.4323 133.173 33.1353 132.066 32.4873ZM138.438 24.7113C138.384 23.9013 138.141 23.2533 137.655 22.7403C137.169 22.2543 136.521 21.9843 135.711 21.9843C134.793 21.9843 134.091 22.2273 133.578 22.7133C133.065 23.1993 132.741 23.8743 132.633 24.7113H138.438Z" fill="white"/>
<path d="M144.146 19.2002H148.142V20.9853C148.628 20.2293 149.249 19.6083 150.059 19.1763C150.869 18.7443 151.814 18.5283 152.894 18.5283C156.35 18.5283 158.105 20.7153 158.105 25.0623V33.0003H154.055V25.2783C154.055 24.2523 153.812 23.4693 153.326 22.8753C152.84 22.2813 152.165 21.9843 151.301 21.9843C150.329 21.9843 149.546 22.3353 148.979 23.0373C148.412 23.7393 148.142 24.6573 148.142 25.8183V33.0003H144.146V19.2002Z" fill="white"/>
<path d="M166.065 33.1083C164.985 33.1083 164.148 33.0003 163.554 32.7843C162.933 32.5683 162.474 32.1903 162.204 31.6233C161.907 31.0563 161.772 30.2463 161.799 29.2203V22.6053H158.802V18.9603H161.799V15.1803H165.795V18.9603H169.467V22.6053H165.795V27.1683C165.795 27.8703 165.822 28.3563 165.876 28.6533C165.93 28.9773 166.092 29.1933 166.308 29.3283C166.524 29.4633 166.875 29.5173 167.388 29.5173C167.766 29.5173 168.849 29.4903 169.47 29.4363V32.9733C168.255 33.0813 166.74 33.1083 166.065 33.1083Z" fill="white"/>
</g>
</svg>
